<svg width="808" height="380" viewBox="0 0 808 380" fill="none" xmlns="http://www.w3.org/2000/svg">
<g clip-path="url(#clip0_7248_1062)">
<path d="M0 32C0 14.3269 14.3269 0 32 0H776C793.673 0 808 14.3269 808 32V348C808 365.673 793.673 380 776 380H32C14.3269 380 0 365.673 0 348V32Z" fill="url(#paint0_linear_7248_1062)"/>
<path d="M59.36 331.16C58.7413 329.859 57.8453 328.856 56.672 328.152C55.4987 327.427 54.1333 327.064 52.576 327.064C51.0187 327.064 49.6107 327.427 48.352 328.152C47.1147 328.856 46.1333 329.88 45.408 331.224C44.704 332.547 44.352 334.083 44.352 335.832C44.352 337.581 44.704 339.117 45.408 340.44C46.1333 341.763 47.1147 342.787 48.352 343.512C49.6107 344.216 51.0187 344.568 52.576 344.568C54.752 344.568 56.544 343.917 57.952 342.616C59.36 341.315 60.1813 339.555 60.416 337.336H51.52V334.968H63.52V337.208C63.3493 339.043 62.7733 340.728 61.792 342.264C60.8107 343.779 59.52 344.984 57.92 345.88C56.32 346.755 54.5387 347.192 52.576 347.192C50.5067 347.192 48.6187 346.712 46.912 345.752C45.2053 344.771 43.8507 343.416 42.848 341.688C41.8667 339.96 41.376 338.008 41.376 335.832C41.376 333.656 41.8667 331.704 42.848 329.976C43.8507 328.227 45.2053 326.872 46.912 325.912C48.6187 324.931 50.5067 324.44 52.576 324.44C54.944 324.44 57.0347 325.027 58.848 326.2C60.6827 327.373 62.016 329.027 62.848 331.16H59.36ZM70.2823 324.696V347H67.3703V324.696H70.2823ZM88.9733 324.696V327.064H82.8933V347H79.9813V327.064H73.8693V324.696H88.9733ZM109.742 324.696V347H106.83V336.888H95.4698V347H92.5578V324.696H95.4698V334.488H106.83V324.696H109.742ZM117.562 324.696V338.808C117.562 340.792 118.042 342.264 119.002 343.224C119.983 344.184 121.338 344.664 123.066 344.664C124.773 344.664 126.106 344.184 127.066 343.224C128.047 342.264 128.538 340.792 128.538 338.808V324.696H131.45V338.776C131.45 340.632 131.077 342.2 130.33 343.48C129.583 344.739 128.57 345.677 127.29 346.296C126.031 346.915 124.613 347.224 123.034 347.224C121.455 347.224 120.026 346.915 118.746 346.296C117.487 345.677 116.485 344.739 115.738 343.48C115.013 342.2 114.65 340.632 114.65 338.776V324.696H117.562ZM147.476 335.512C148.286 335.64 149.022 335.971 149.684 336.504C150.366 337.037 150.9 337.699 151.284 338.488C151.689 339.277 151.892 340.12 151.892 341.016C151.892 342.147 151.604 343.171 151.028 344.088C150.452 344.984 149.609 345.699 148.5 346.232C147.412 346.744 146.121 347 144.628 347H136.308V324.696H144.308C145.822 324.696 147.113 324.952 148.18 325.464C149.246 325.955 150.046 326.627 150.58 327.48C151.113 328.333 151.38 329.293 151.38 330.36C151.38 331.683 151.017 332.781 150.292 333.656C149.588 334.509 148.649 335.128 147.476 335.512ZM139.22 334.328H144.116C145.481 334.328 146.537 334.008 147.284 333.368C148.03 332.728 148.404 331.843 148.404 330.712C148.404 329.581 148.03 328.696 147.284 328.056C146.537 327.416 145.46 327.096 144.052 327.096H139.22V334.328ZM144.372 344.6C145.822 344.6 146.953 344.259 147.764 343.576C148.574 342.893 148.98 341.944 148.98 340.728C148.98 339.491 148.553 338.52 147.7 337.816C146.846 337.091 145.705 336.728 144.276 336.728H139.22V344.6H144.372Z" fill="#E5E4E0"/>
<path d="M670.125 271.042C591.167 294.729 591.167 231.562 559.583 223.667M780.667 318.417V257.303C781.259 249.773 780.242 242.203 777.682 235.097C775.123 227.99 771.08 221.51 765.823 216.087C815.409 210.56 867.521 191.767 867.521 105.545C867.517 83.4971 859.036 62.2947 843.834 46.3262C851.032 27.0368 850.523 5.71557 842.412 -13.2084C842.412 -13.2084 823.778 -18.7354 780.667 10.1633C744.472 0.353865 706.32 0.353865 670.125 10.1633C627.014 -18.7354 608.38 -13.2084 608.38 -13.2084C600.269 5.71557 599.76 27.0368 606.958 46.3262C591.643 62.4132 583.153 83.8072 583.271 106.019C583.271 191.61 635.383 210.402 684.969 216.56C679.774 221.929 675.767 228.332 673.209 235.351C670.652 242.371 669.601 249.85 670.125 257.303V318.417" stroke="url(#paint1_linear_7248_1062)" stroke-width="4" stroke-linecap="round" stroke-linejoin="round"/>
</g>
<defs>
<linearGradient id="paint0_linear_7248_1062" x1="404" y1="0" x2="404" y2="380" gradientUnits="userSpaceOnUse">
<stop/>
<stop offset="1" stop-color="#5638B1"/>
</linearGradient>
<linearGradient id="paint1_linear_7248_1062" x1="713.552" y1="-13.6315" x2="713.552" y2="318.417" gradientUnits="userSpaceOnUse">
<stop stop-color="#5638B1"/>
<stop offset="1"/>
</linearGradient>
<clipPath id="clip0_7248_1062">
<path d="M0 32C0 14.3269 14.3269 0 32 0H776C793.673 0 808 14.3269 808 32V348C808 365.673 793.673 380 776 380H32C14.3269 380 0 365.673 0 348V32Z" fill="white"/>
</clipPath>
</defs>
</svg>
