<svg width="400" height="380" viewBox="0 0 400 380" fill="none" xmlns="http://www.w3.org/2000/svg">
<g clip-path="url(#clip0_7248_1071)">
<path d="M0 32C0 14.3269 14.3269 0 32 0H368C385.673 0 400 14.3269 400 32V348C400 365.673 385.673 380 368 380H32C14.3269 380 0 365.673 0 348V32Z" fill="url(#paint0_linear_7248_1071)"/>
<path d="M45.376 324.696V347H42.464V324.696H45.376ZM67.875 347H64.963L53.251 329.24V347H50.339V324.664H53.251L64.963 342.392V324.664H67.875V347ZM79.911 347.224C78.439 347.224 77.1163 346.968 75.943 346.456C74.791 345.923 73.8843 345.197 73.223 344.28C72.5617 343.341 72.2203 342.264 72.199 341.048H75.303C75.4097 342.093 75.8363 342.979 76.583 343.704C77.351 344.408 78.4603 344.76 79.911 344.76C81.2977 344.76 82.3857 344.419 83.175 343.736C83.9857 343.032 84.391 342.136 84.391 341.048C84.391 340.195 84.1563 339.501 83.687 338.968C83.2177 338.435 82.631 338.029 81.927 337.752C81.223 337.475 80.2737 337.176 79.079 336.856C77.607 336.472 76.423 336.088 75.527 335.704C74.6523 335.32 73.895 334.723 73.255 333.912C72.6363 333.08 72.327 331.971 72.327 330.584C72.327 329.368 72.6363 328.291 73.255 327.352C73.8737 326.413 74.7377 325.688 75.847 325.176C76.9777 324.664 78.2683 324.408 79.719 324.408C81.8097 324.408 83.5163 324.931 84.839 325.976C86.183 327.021 86.9403 328.408 87.111 330.136H83.911C83.8043 329.283 83.3563 328.536 82.567 327.896C81.7777 327.235 80.7323 326.904 79.431 326.904C78.215 326.904 77.223 327.224 76.455 327.864C75.687 328.483 75.303 329.357 75.303 330.488C75.303 331.299 75.527 331.96 75.975 332.472C76.4443 332.984 77.0097 333.379 77.671 333.656C78.3537 333.912 79.303 334.211 80.519 334.552C81.991 334.957 83.175 335.363 84.071 335.768C84.967 336.152 85.735 336.76 86.375 337.592C87.015 338.403 87.335 339.512 87.335 340.92C87.335 342.008 87.047 343.032 86.471 343.992C85.895 344.952 85.0417 345.731 83.911 346.328C82.7803 346.925 81.447 347.224 79.911 347.224ZM105.348 324.696V327.064H99.2683V347H96.3563V327.064H90.2443V324.696H105.348ZM122.117 342.04H112.389L110.597 347H107.525L115.589 324.824H118.949L126.981 347H123.909L122.117 342.04ZM121.285 339.672L117.253 328.408L113.221 339.672H121.285ZM147.391 331.16C146.773 329.859 145.877 328.856 144.703 328.152C143.53 327.427 142.165 327.064 140.607 327.064C139.05 327.064 137.642 327.427 136.383 328.152C135.146 328.856 134.165 329.88 133.439 331.224C132.735 332.547 132.383 334.083 132.383 335.832C132.383 337.581 132.735 339.117 133.439 340.44C134.165 341.763 135.146 342.787 136.383 343.512C137.642 344.216 139.05 344.568 140.607 344.568C142.783 344.568 144.575 343.917 145.983 342.616C147.391 341.315 148.213 339.555 148.447 337.336H139.551V334.968H151.551V337.208C151.381 339.043 150.805 340.728 149.823 342.264C148.842 343.779 147.551 344.984 145.951 345.88C144.351 346.755 142.57 347.192 140.607 347.192C138.538 347.192 136.65 346.712 134.943 345.752C133.237 344.771 131.882 343.416 130.879 341.688C129.898 339.96 129.407 338.008 129.407 335.832C129.407 333.656 129.898 331.704 130.879 329.976C131.882 328.227 133.237 326.872 134.943 325.912C136.65 324.931 138.538 324.44 140.607 324.44C142.975 324.44 145.066 325.027 146.879 326.2C148.714 327.373 150.047 329.027 150.879 331.16H147.391ZM167.146 347L161.834 337.88H158.314V347H155.402V324.696H162.602C164.287 324.696 165.706 324.984 166.858 325.56C168.031 326.136 168.906 326.915 169.482 327.896C170.058 328.877 170.346 329.997 170.346 331.256C170.346 332.792 169.898 334.147 169.002 335.32C168.127 336.493 166.804 337.272 165.034 337.656L170.634 347H167.146ZM158.314 335.544H162.602C164.18 335.544 165.364 335.16 166.154 334.392C166.943 333.603 167.338 332.557 167.338 331.256C167.338 329.933 166.943 328.909 166.154 328.184C165.386 327.459 164.202 327.096 162.602 327.096H158.314V335.544ZM188.054 342.04H178.326L176.534 347H173.462L181.526 324.824H184.886L192.918 347H189.846L188.054 342.04ZM187.222 339.672L183.19 328.408L179.158 339.672H187.222ZM219.057 324.856V347H216.145V330.488L208.785 347H206.737L199.345 330.456V347H196.433V324.856H199.569L207.761 343.16L215.953 324.856H219.057Z" fill="#E5E4E0"/>
<path d="M360.125 41.875H360.273M205.25 -24.5H352.75C393.481 -24.5 426.5 8.519 426.5 49.25V196.75C426.5 237.481 393.481 270.5 352.75 270.5H205.25C164.519 270.5 131.5 237.481 131.5 196.75V49.25C131.5 8.519 164.519 -24.5 205.25 -24.5ZM338 113.707C339.82 125.983 337.724 138.52 332.008 149.535C326.292 160.551 317.249 169.483 306.164 175.063C295.079 180.642 282.517 182.584 270.265 180.613C258.013 178.641 246.694 172.856 237.919 164.081C229.144 155.306 223.359 143.987 221.387 131.735C219.416 119.483 221.358 106.921 226.937 95.836C232.517 84.7511 241.449 75.7077 252.465 69.9921C263.48 64.2764 276.017 62.1797 288.293 64C300.814 65.8568 312.407 71.6916 321.357 80.6425C330.308 89.5935 336.143 101.186 338 113.707Z" stroke="url(#paint1_linear_7248_1071)" stroke-width="4" stroke-linecap="round" stroke-linejoin="round"/>
</g>
<defs>
<linearGradient id="paint0_linear_7248_1071" x1="400" y1="190" x2="8.3521e-06" y2="190" gradientUnits="userSpaceOnUse">
<stop stop-color="#5638B1"/>
<stop offset="1"/>
</linearGradient>
<linearGradient id="paint1_linear_7248_1071" x1="279" y1="-24.5" x2="279" y2="270.5" gradientUnits="userSpaceOnUse">
<stop/>
<stop offset="1" stop-color="#5638B1"/>
</linearGradient>
<clipPath id="clip0_7248_1071">
<path d="M0 32C0 14.3269 14.3269 0 32 0H368C385.673 0 400 14.3269 400 32V348C400 365.673 385.673 380 368 380H32C14.3269 380 0 365.673 0 348V32Z" fill="white"/>
</clipPath>
</defs>
</svg>
