<svg width="400" height="380" viewBox="0 0 400 380" fill="none" xmlns="http://www.w3.org/2000/svg">
<g clip-path="url(#clip0_7248_1035)">
<path d="M0 32C0 14.3269 14.3269 0 32 0H368C385.673 0 400 14.3269 400 32V348C400 365.673 385.673 380 368 380H32C14.3269 380 0 365.673 0 348V32Z" fill="url(#paint0_linear_7248_1035)"/>
<path d="M41.376 335.832C41.376 333.656 41.8667 331.704 42.848 329.976C43.8293 328.227 45.1627 326.861 46.848 325.88C48.5547 324.899 50.4427 324.408 52.512 324.408C54.944 324.408 57.0667 324.995 58.88 326.168C60.6933 327.341 62.016 329.005 62.848 331.16H59.36C58.7413 329.816 57.8453 328.781 56.672 328.056C55.52 327.331 54.1333 326.968 52.512 326.968C50.9547 326.968 49.5573 327.331 48.32 328.056C47.0827 328.781 46.112 329.816 45.408 331.16C44.704 332.483 44.352 334.04 44.352 335.832C44.352 337.603 44.704 339.16 45.408 340.504C46.112 341.827 47.0827 342.851 48.32 343.576C49.5573 344.301 50.9547 344.664 52.512 344.664C54.1333 344.664 55.52 344.312 56.672 343.608C57.8453 342.883 58.7413 341.848 59.36 340.504H62.848C62.016 342.637 60.6933 344.291 58.88 345.464C57.0667 346.616 54.944 347.192 52.512 347.192C50.4427 347.192 48.5547 346.712 46.848 345.752C45.1627 344.771 43.8293 343.416 42.848 341.688C41.8667 339.96 41.376 338.008 41.376 335.832ZM70.0308 324.696V338.808C70.0308 340.792 70.5108 342.264 71.4708 343.224C72.4521 344.184 73.8068 344.664 75.5348 344.664C77.2414 344.664 78.5748 344.184 79.5348 343.224C80.5161 342.264 81.0068 340.792 81.0068 338.808V324.696H83.9188V338.776C83.9188 340.632 83.5454 342.2 82.7987 343.48C82.0521 344.739 81.0388 345.677 79.7588 346.296C78.5001 346.915 77.0814 347.224 75.5028 347.224C73.9241 347.224 72.4948 346.915 71.2148 346.296C69.9561 345.677 68.9534 344.739 68.2068 343.48C67.4814 342.2 67.1188 340.632 67.1188 338.776V324.696H70.0308ZM100.521 347L95.2085 337.88H91.6885V347H88.7765V324.696H95.9765C97.6618 324.696 99.0805 324.984 100.233 325.56C101.406 326.136 102.281 326.915 102.857 327.896C103.433 328.877 103.721 329.997 103.721 331.256C103.721 332.792 103.273 334.147 102.377 335.32C101.502 336.493 100.179 337.272 98.4085 337.656L104.009 347H100.521ZM91.6885 335.544H95.9765C97.5552 335.544 98.7392 335.16 99.5285 334.392C100.318 333.603 100.713 332.557 100.713 331.256C100.713 329.933 100.318 328.909 99.5285 328.184C98.7605 327.459 97.5765 327.096 95.9765 327.096H91.6885V335.544ZM119.989 347L114.677 337.88H111.157V347H108.245V324.696H115.445C117.131 324.696 118.549 324.984 119.701 325.56C120.875 326.136 121.749 326.915 122.325 327.896C122.901 328.877 123.189 329.997 123.189 331.256C123.189 332.792 122.741 334.147 121.845 335.32C120.971 336.493 119.648 337.272 117.877 337.656L123.477 347H119.989ZM111.157 335.544H115.445C117.024 335.544 118.208 335.16 118.997 334.392C119.787 333.603 120.181 332.557 120.181 331.256C120.181 329.933 119.787 328.909 118.997 328.184C118.229 327.459 117.045 327.096 115.445 327.096H111.157V335.544ZM130.626 324.696V347H127.714V324.696H130.626ZM132.29 319.864L125.474 323.512V321.336L132.29 317.336V319.864ZM134.501 335.832C134.501 333.656 134.992 331.704 135.973 329.976C136.954 328.227 138.288 326.861 139.973 325.88C141.68 324.899 143.568 324.408 145.637 324.408C148.069 324.408 150.192 324.995 152.005 326.168C153.818 327.341 155.141 329.005 155.973 331.16H152.485C151.866 329.816 150.97 328.781 149.797 328.056C148.645 327.331 147.258 326.968 145.637 326.968C144.08 326.968 142.682 327.331 141.445 328.056C140.208 328.781 139.237 329.816 138.533 331.16C137.829 332.483 137.477 334.04 137.477 335.832C137.477 337.603 137.829 339.16 138.533 340.504C139.237 341.827 140.208 342.851 141.445 343.576C142.682 344.301 144.08 344.664 145.637 344.664C147.258 344.664 148.645 344.312 149.797 343.608C150.97 342.883 151.866 341.848 152.485 340.504H155.973C155.141 342.637 153.818 344.291 152.005 345.464C150.192 346.616 148.069 347.192 145.637 347.192C143.568 347.192 141.68 346.712 139.973 345.752C138.288 344.771 136.954 343.416 135.973 341.688C134.992 339.96 134.501 338.008 134.501 335.832ZM163.156 324.696V338.808C163.156 340.792 163.636 342.264 164.596 343.224C165.577 344.184 166.932 344.664 168.66 344.664C170.366 344.664 171.7 344.184 172.66 343.224C173.641 342.264 174.132 340.792 174.132 338.808V324.696H177.044V338.776C177.044 340.632 176.67 342.2 175.924 343.48C175.177 344.739 174.164 345.677 172.884 346.296C171.625 346.915 170.206 347.224 168.628 347.224C167.049 347.224 165.62 346.915 164.34 346.296C163.081 345.677 162.078 344.739 161.332 343.48C160.606 342.2 160.244 340.632 160.244 338.776V324.696H163.156ZM184.814 344.632H192.622V347H181.902V324.696H184.814V344.632ZM205.826 347.224C203.757 347.224 201.869 346.744 200.162 345.784C198.455 344.803 197.101 343.448 196.098 341.72C195.117 339.971 194.626 338.008 194.626 335.832C194.626 333.656 195.117 331.704 196.098 329.976C197.101 328.227 198.455 326.872 200.162 325.912C201.869 324.931 203.757 324.44 205.826 324.44C207.917 324.44 209.815 324.931 211.522 325.912C213.229 326.872 214.573 328.216 215.554 329.944C216.535 331.672 217.026 333.635 217.026 335.832C217.026 338.029 216.535 339.992 215.554 341.72C214.573 343.448 213.229 344.803 211.522 345.784C209.815 346.744 207.917 347.224 205.826 347.224ZM205.826 344.696C207.383 344.696 208.781 344.333 210.018 343.608C211.277 342.883 212.258 341.848 212.962 340.504C213.687 339.16 214.05 337.603 214.05 335.832C214.05 334.04 213.687 332.483 212.962 331.16C212.258 329.816 211.287 328.781 210.05 328.056C208.813 327.331 207.405 326.968 205.826 326.968C204.247 326.968 202.839 327.331 201.602 328.056C200.365 328.781 199.383 329.816 198.658 331.16C197.954 332.483 197.602 334.04 197.602 335.832C197.602 337.603 197.954 339.16 198.658 340.504C199.383 341.848 200.365 342.883 201.602 343.608C202.861 344.333 204.269 344.696 205.826 344.696Z" fill="#E5E4E0"/>
<path d="M165.627 140.221L293.521 12.3266C309.189 -3.34137 330.439 -12.1436 352.597 -12.1436C374.755 -12.1436 396.005 -3.34136 411.673 12.3266C427.341 27.9946 436.144 49.245 436.144 71.4029C436.144 93.5608 427.341 114.811 411.673 130.479L283.779 258.373C273.334 268.819 259.167 274.687 244.395 274.687C229.623 274.687 215.456 268.819 205.011 258.373C194.566 247.928 188.697 233.761 188.697 218.989C188.697 204.217 194.566 190.05 205.011 179.605L333.044 51.7108C338.267 46.4881 345.35 43.5541 352.736 43.5541C360.122 43.5541 367.206 46.4881 372.428 51.7108C377.651 56.9335 380.585 64.0169 380.585 71.4029C380.585 78.7888 377.651 85.8723 372.428 91.095L254.276 209.108" stroke="url(#paint1_linear_7248_1035)" stroke-width="4" stroke-linecap="round" stroke-linejoin="round"/>
</g>
<defs>
<linearGradient id="paint0_linear_7248_1035" x1="200" y1="0" x2="200" y2="380" gradientUnits="userSpaceOnUse">
<stop/>
<stop offset="1" stop-color="#5638B1"/>
</linearGradient>
<linearGradient id="paint1_linear_7248_1035" x1="300.885" y1="274.687" x2="300.885" y2="-12.1436" gradientUnits="userSpaceOnUse">
<stop/>
<stop offset="1" stop-color="#5638B1"/>
</linearGradient>
<clipPath id="clip0_7248_1035">
<path d="M0 32C0 14.3269 14.3269 0 32 0H368C385.673 0 400 14.3269 400 32V348C400 365.673 385.673 380 368 380H32C14.3269 380 0 365.673 0 348V32Z" fill="white"/>
</clipPath>
</defs>
</svg>
