<svg width="808" height="380" viewBox="0 0 808 380" fill="none" xmlns="http://www.w3.org/2000/svg">
<g clip-path="url(#clip0_7248_1026)">
<path d="M0 32C0 14.3269 14.3269 0 32 0H776C793.673 0 808 14.3269 808 32V348C808 365.673 793.673 380 776 380H32C14.3269 380 0 365.673 0 348V32Z" fill="url(#paint0_linear_7248_1026)"/>
<path d="M53.848 338.92C53.848 339.336 53.824 339.776 53.776 340.24H43.264C43.344 341.536 43.784 342.552 44.584 343.288C45.4 344.008 46.384 344.368 47.536 344.368C48.48 344.368 49.264 344.152 49.888 343.72C50.528 343.272 50.976 342.68 51.232 341.944H53.584C53.232 343.208 52.528 344.24 51.472 345.04C50.416 345.824 49.104 346.216 47.536 346.216C46.288 346.216 45.168 345.936 44.176 345.376C43.2 344.816 42.432 344.024 41.872 343C41.312 341.96 41.032 340.76 41.032 339.4C41.032 338.04 41.304 336.848 41.848 335.824C42.392 334.8 43.152 334.016 44.128 333.472C45.12 332.912 46.256 332.632 47.536 332.632C48.784 332.632 49.888 332.904 50.848 333.448C51.808 333.992 52.544 334.744 53.056 335.704C53.584 336.648 53.848 337.72 53.848 338.92ZM51.592 338.464C51.592 337.632 51.408 336.92 51.04 336.328C50.672 335.72 50.168 335.264 49.528 334.96C48.904 334.64 48.208 334.48 47.44 334.48C46.336 334.48 45.392 334.832 44.608 335.536C43.84 336.24 43.4 337.216 43.288 338.464H51.592ZM63.1388 332.608C64.7388 332.608 66.0348 333.096 67.0268 334.072C68.0188 335.032 68.5148 336.424 68.5148 338.248V346H66.3548V338.56C66.3548 337.248 66.0268 336.248 65.3708 335.56C64.7148 334.856 63.8188 334.504 62.6828 334.504C61.5308 334.504 60.6108 334.864 59.9228 335.584C59.2508 336.304 58.9148 337.352 58.9148 338.728V346H56.7308V332.848H58.9148V334.72C59.3468 334.048 59.9308 333.528 60.6668 333.16C61.4188 332.792 62.2428 332.608 63.1388 332.608ZM73.7144 344.2H80.1704V346H71.2184V344.2L77.6024 334.624H71.2664V332.848H80.1224V334.624L73.7144 344.2ZM88.7403 346.216C87.5083 346.216 86.3883 345.936 85.3803 345.376C84.3883 344.816 83.6043 344.024 83.0283 343C82.4683 341.96 82.1883 340.76 82.1883 339.4C82.1883 338.056 82.4763 336.872 83.0523 335.848C83.6443 334.808 84.4443 334.016 85.4523 333.472C86.4603 332.912 87.5883 332.632 88.8363 332.632C90.0843 332.632 91.2123 332.912 92.2203 333.472C93.2283 334.016 94.0203 334.8 94.5963 335.824C95.1883 336.848 95.4843 338.04 95.4843 339.4C95.4843 340.76 95.1803 341.96 94.5723 343C93.9803 344.024 93.1723 344.816 92.1483 345.376C91.1243 345.936 89.9883 346.216 88.7403 346.216ZM88.7403 344.296C89.5243 344.296 90.2603 344.112 90.9483 343.744C91.6363 343.376 92.1883 342.824 92.6043 342.088C93.0363 341.352 93.2523 340.456 93.2523 339.4C93.2523 338.344 93.0443 337.448 92.6283 336.712C92.2123 335.976 91.6683 335.432 90.9963 335.08C90.3243 334.712 89.5963 334.528 88.8123 334.528C88.0123 334.528 87.2763 334.712 86.6043 335.08C85.9483 335.432 85.4203 335.976 85.0203 336.712C84.6203 337.448 84.4203 338.344 84.4203 339.4C84.4203 340.472 84.6123 341.376 84.9963 342.112C85.3963 342.848 85.9243 343.4 86.5803 343.768C87.2363 344.12 87.9563 344.296 88.7403 344.296ZM110.356 338.92C110.356 339.336 110.332 339.776 110.284 340.24H99.7718C99.8518 341.536 100.292 342.552 101.092 343.288C101.908 344.008 102.892 344.368 104.044 344.368C104.988 344.368 105.772 344.152 106.396 343.72C107.036 343.272 107.484 342.68 107.74 341.944H110.092C109.74 343.208 109.036 344.24 107.98 345.04C106.924 345.824 105.612 346.216 104.044 346.216C102.796 346.216 101.676 345.936 100.684 345.376C99.7078 344.816 98.9398 344.024 98.3798 343C97.8198 341.96 97.5398 340.76 97.5398 339.4C97.5398 338.04 97.8118 336.848 98.3558 335.824C98.8998 334.8 99.6598 334.016 100.636 333.472C101.628 332.912 102.764 332.632 104.044 332.632C105.292 332.632 106.396 332.904 107.356 333.448C108.316 333.992 109.052 334.744 109.564 335.704C110.092 336.648 110.356 337.72 110.356 338.92ZM108.1 338.464C108.1 337.632 107.916 336.92 107.548 336.328C107.18 335.72 106.676 335.264 106.036 334.96C105.412 334.64 104.716 334.48 103.948 334.48C102.844 334.48 101.9 334.832 101.116 335.536C100.348 336.24 99.9078 337.216 99.7958 338.464H108.1ZM129.055 332.608C130.079 332.608 130.991 332.824 131.791 333.256C132.591 333.672 133.223 334.304 133.687 335.152C134.151 336 134.383 337.032 134.383 338.248V346H132.223V338.56C132.223 337.248 131.895 336.248 131.239 335.56C130.599 334.856 129.727 334.504 128.623 334.504C127.487 334.504 126.583 334.872 125.911 335.608C125.239 336.328 124.903 337.376 124.903 338.752V346H122.743V338.56C122.743 337.248 122.415 336.248 121.759 335.56C121.119 334.856 120.247 334.504 119.143 334.504C118.007 334.504 117.103 334.872 116.431 335.608C115.759 336.328 115.423 337.376 115.423 338.752V346H113.239V332.848H115.423V334.744C115.855 334.056 116.431 333.528 117.151 333.16C117.887 332.792 118.695 332.608 119.575 332.608C120.679 332.608 121.655 332.856 122.503 333.352C123.351 333.848 123.983 334.576 124.399 335.536C124.767 334.608 125.375 333.888 126.223 333.376C127.071 332.864 128.015 332.608 129.055 332.608ZM153.781 332.608C154.805 332.608 155.717 332.824 156.517 333.256C157.317 333.672 157.949 334.304 158.413 335.152C158.877 336 159.109 337.032 159.109 338.248V346H156.949V338.56C156.949 337.248 156.621 336.248 155.965 335.56C155.325 334.856 154.453 334.504 153.349 334.504C152.213 334.504 151.309 334.872 150.637 335.608C149.965 336.328 149.629 337.376 149.629 338.752V346H147.469V338.56C147.469 337.248 147.141 336.248 146.485 335.56C145.845 334.856 144.973 334.504 143.869 334.504C142.733 334.504 141.829 334.872 141.157 335.608C140.485 336.328 140.149 337.376 140.149 338.752V346H137.965V332.848H140.149V334.744C140.581 334.056 141.157 333.528 141.877 333.16C142.613 332.792 143.421 332.608 144.301 332.608C145.405 332.608 146.381 332.856 147.229 333.352C148.077 333.848 148.709 334.576 149.125 335.536C149.493 334.608 150.101 333.888 150.949 333.376C151.797 332.864 152.741 332.608 153.781 332.608ZM174.692 338.92C174.692 339.336 174.668 339.776 174.62 340.24H164.108C164.188 341.536 164.628 342.552 165.428 343.288C166.244 344.008 167.228 344.368 168.38 344.368C169.324 344.368 170.108 344.152 170.732 343.72C171.372 343.272 171.82 342.68 172.076 341.944H174.428C174.076 343.208 173.372 344.24 172.316 345.04C171.26 345.824 169.948 346.216 168.38 346.216C167.132 346.216 166.012 345.936 165.02 345.376C164.044 344.816 163.276 344.024 162.716 343C162.156 341.96 161.876 340.76 161.876 339.4C161.876 338.04 162.148 336.848 162.692 335.824C163.236 334.8 163.996 334.016 164.972 333.472C165.964 332.912 167.1 332.632 168.38 332.632C169.628 332.632 170.732 332.904 171.692 333.448C172.652 333.992 173.388 334.744 173.9 335.704C174.428 336.648 174.692 337.72 174.692 338.92ZM172.436 338.464C172.436 337.632 172.252 336.92 171.884 336.328C171.516 335.72 171.012 335.264 170.372 334.96C169.748 334.64 169.052 334.48 168.284 334.48C167.18 334.48 166.236 334.832 165.452 335.536C164.684 336.24 164.244 337.216 164.132 338.464H172.436ZM179.759 334.984C180.143 334.232 180.687 333.648 181.391 333.232C182.111 332.816 182.983 332.608 184.007 332.608V334.864H183.431C180.983 334.864 179.759 336.192 179.759 338.848V346H177.575V332.848H179.759V334.984ZM196.848 330.352L190.176 346H187.968L194.736 330.568H185.472V328.696H196.848V330.352ZM211.629 330.616C213.405 330.616 214.949 330.952 216.261 331.624C217.573 332.296 218.581 333.24 219.285 334.456C219.989 335.656 220.341 337.048 220.341 338.632C220.341 339.896 220.133 341.112 219.717 342.28C219.301 343.432 218.693 344.368 217.893 345.088C217.109 345.808 216.189 346.168 215.133 346.168C214.333 346.168 213.717 345.968 213.285 345.568C212.853 345.168 212.605 344.624 212.541 343.936C212.045 344.624 211.413 345.168 210.645 345.568C209.893 345.968 209.093 346.168 208.245 346.168C207.029 346.168 206.069 345.8 205.365 345.064C204.677 344.312 204.333 343.304 204.333 342.04C204.333 340.84 204.581 339.72 205.077 338.68C205.589 337.64 206.293 336.808 207.189 336.184C208.085 335.544 209.101 335.224 210.237 335.224C211.757 335.224 212.781 335.8 213.309 336.952L213.573 335.464H215.469L214.269 342.4C214.221 342.704 214.197 342.984 214.197 343.24C214.197 344.2 214.621 344.68 215.469 344.68C216.109 344.68 216.661 344.376 217.125 343.768C217.605 343.16 217.965 342.4 218.205 341.488C218.445 340.56 218.565 339.648 218.565 338.752C218.565 336.656 217.933 335.032 216.669 333.88C215.421 332.728 213.653 332.152 211.365 332.152C209.461 332.152 207.741 332.616 206.205 333.544C204.685 334.456 203.493 335.712 202.629 337.312C201.765 338.912 201.333 340.68 201.333 342.616C201.317 344.728 201.949 346.352 203.229 347.488C204.509 348.64 206.285 349.216 208.557 349.216C210.061 349.216 211.389 348.944 212.541 348.4L212.829 349.888C211.405 350.48 209.837 350.776 208.125 350.776C206.413 350.776 204.901 350.448 203.589 349.792C202.293 349.152 201.285 348.224 200.565 347.008C199.861 345.808 199.509 344.408 199.509 342.808C199.509 340.552 200.029 338.496 201.069 336.64C202.109 334.768 203.549 333.296 205.389 332.224C207.245 331.152 209.325 330.616 211.629 330.616ZM208.893 344.464C209.613 344.464 210.277 344.256 210.885 343.84C211.493 343.408 211.973 342.832 212.325 342.112C212.677 341.376 212.853 340.576 212.853 339.712C212.853 338.88 212.621 338.208 212.157 337.696C211.709 337.168 211.069 336.904 210.237 336.904C209.469 336.904 208.789 337.136 208.197 337.6C207.621 338.048 207.173 338.648 206.853 339.4C206.533 340.136 206.373 340.904 206.373 341.704C206.373 342.552 206.589 343.224 207.021 343.72C207.453 344.216 208.077 344.464 208.893 344.464ZM229.358 332.632C230.494 332.632 231.486 332.88 232.334 333.376C233.198 333.872 233.838 334.496 234.254 335.248V332.848H236.462V346.288C236.462 347.488 236.206 348.552 235.694 349.48C235.182 350.424 234.446 351.16 233.486 351.688C232.542 352.216 231.438 352.48 230.174 352.48C228.446 352.48 227.006 352.072 225.854 351.256C224.702 350.44 224.022 349.328 223.814 347.92H225.974C226.214 348.72 226.71 349.36 227.462 349.84C228.214 350.336 229.118 350.584 230.174 350.584C231.374 350.584 232.35 350.208 233.102 349.456C233.87 348.704 234.254 347.648 234.254 346.288V343.528C233.822 344.296 233.182 344.936 232.334 345.448C231.486 345.96 230.494 346.216 229.358 346.216C228.19 346.216 227.126 345.928 226.166 345.352C225.222 344.776 224.478 343.968 223.934 342.928C223.39 341.888 223.118 340.704 223.118 339.376C223.118 338.032 223.39 336.856 223.934 335.848C224.478 334.824 225.222 334.032 226.166 333.472C227.126 332.912 228.19 332.632 229.358 332.632ZM234.254 339.4C234.254 338.408 234.054 337.544 233.654 336.808C233.254 336.072 232.71 335.512 232.022 335.128C231.35 334.728 230.606 334.528 229.79 334.528C228.974 334.528 228.23 334.72 227.558 335.104C226.886 335.488 226.35 336.048 225.95 336.784C225.55 337.52 225.35 338.384 225.35 339.376C225.35 340.384 225.55 341.264 225.95 342.016C226.35 342.752 226.886 343.32 227.558 343.72C228.23 344.104 228.974 344.296 229.79 344.296C230.606 344.296 231.35 344.104 232.022 343.72C232.71 343.32 233.254 342.752 233.654 342.016C234.054 341.264 234.254 340.392 234.254 339.4ZM255.969 332.608C256.993 332.608 257.905 332.824 258.705 333.256C259.505 333.672 260.137 334.304 260.601 335.152C261.065 336 261.297 337.032 261.297 338.248V346H259.137V338.56C259.137 337.248 258.809 336.248 258.153 335.56C257.513 334.856 256.641 334.504 255.537 334.504C254.401 334.504 253.497 334.872 252.825 335.608C252.153 336.328 251.817 337.376 251.817 338.752V346H249.657V338.56C249.657 337.248 249.329 336.248 248.673 335.56C248.033 334.856 247.161 334.504 246.057 334.504C244.921 334.504 244.017 334.872 243.345 335.608C242.673 336.328 242.337 337.376 242.337 338.752V346H240.153V332.848H242.337V334.744C242.769 334.056 243.345 333.528 244.065 333.16C244.801 332.792 245.609 332.608 246.489 332.608C247.593 332.608 248.569 332.856 249.417 333.352C250.265 333.848 250.897 334.576 251.313 335.536C251.681 334.608 252.289 333.888 253.137 333.376C253.985 332.864 254.929 332.608 255.969 332.608ZM264.063 339.376C264.063 338.032 264.335 336.856 264.879 335.848C265.423 334.824 266.167 334.032 267.111 333.472C268.071 332.912 269.135 332.632 270.303 332.632C271.455 332.632 272.455 332.88 273.303 333.376C274.151 333.872 274.783 334.496 275.199 335.248V332.848H277.407V346H275.199V343.552C274.767 344.32 274.119 344.96 273.255 345.472C272.407 345.968 271.415 346.216 270.279 346.216C269.111 346.216 268.055 345.928 267.111 345.352C266.167 344.776 265.423 343.968 264.879 342.928C264.335 341.888 264.063 340.704 264.063 339.376ZM275.199 339.4C275.199 338.408 274.999 337.544 274.599 336.808C274.199 336.072 273.655 335.512 272.967 335.128C272.295 334.728 271.551 334.528 270.735 334.528C269.919 334.528 269.175 334.72 268.503 335.104C267.831 335.488 267.295 336.048 266.895 336.784C266.495 337.52 266.295 338.384 266.295 339.376C266.295 340.384 266.495 341.264 266.895 342.016C267.295 342.752 267.831 343.32 268.503 343.72C269.175 344.104 269.919 344.296 270.735 344.296C271.551 344.296 272.295 344.104 272.967 343.72C273.655 343.32 274.199 342.752 274.599 342.016C274.999 341.264 275.199 340.392 275.199 339.4ZM282.226 330.712C281.81 330.712 281.458 330.568 281.17 330.28C280.882 329.992 280.738 329.64 280.738 329.224C280.738 328.808 280.882 328.456 281.17 328.168C281.458 327.88 281.81 327.736 282.226 327.736C282.626 327.736 282.962 327.88 283.234 328.168C283.522 328.456 283.666 328.808 283.666 329.224C283.666 329.64 283.522 329.992 283.234 330.28C282.962 330.568 282.626 330.712 282.226 330.712ZM283.282 332.848V346H281.098V332.848H283.282ZM289.188 328.24V346H287.004V328.24H289.188ZM293.607 346.144C293.191 346.144 292.839 346 292.551 345.712C292.263 345.424 292.119 345.072 292.119 344.656C292.119 344.24 292.263 343.888 292.551 343.6C292.839 343.312 293.191 343.168 293.607 343.168C294.007 343.168 294.343 343.312 294.615 343.6C294.903 343.888 295.047 344.24 295.047 344.656C295.047 345.072 294.903 345.424 294.615 345.712C294.343 346 294.007 346.144 293.607 346.144ZM297.134 339.4C297.134 338.04 297.406 336.856 297.95 335.848C298.494 334.824 299.246 334.032 300.206 333.472C301.182 332.912 302.294 332.632 303.542 332.632C305.158 332.632 306.486 333.024 307.526 333.808C308.582 334.592 309.278 335.68 309.614 337.072H307.262C307.038 336.272 306.598 335.64 305.942 335.176C305.302 334.712 304.502 334.48 303.542 334.48C302.294 334.48 301.286 334.912 300.518 335.776C299.75 336.624 299.366 337.832 299.366 339.4C299.366 340.984 299.75 342.208 300.518 343.072C301.286 343.936 302.294 344.368 303.542 344.368C304.502 344.368 305.302 344.144 305.942 343.696C306.582 343.248 307.022 342.608 307.262 341.776H309.614C309.262 343.12 308.558 344.2 307.502 345.016C306.446 345.816 305.126 346.216 303.542 346.216C302.294 346.216 301.182 345.936 300.206 345.376C299.246 344.816 298.494 344.024 297.95 343C297.406 341.976 297.134 340.776 297.134 339.4ZM318.264 346.216C317.032 346.216 315.912 345.936 314.904 345.376C313.912 344.816 313.128 344.024 312.552 343C311.992 341.96 311.712 340.76 311.712 339.4C311.712 338.056 312 336.872 312.576 335.848C313.168 334.808 313.968 334.016 314.976 333.472C315.984 332.912 317.112 332.632 318.36 332.632C319.608 332.632 320.736 332.912 321.744 333.472C322.752 334.016 323.544 334.8 324.12 335.824C324.712 336.848 325.008 338.04 325.008 339.4C325.008 340.76 324.704 341.96 324.096 343C323.504 344.024 322.696 344.816 321.672 345.376C320.648 345.936 319.512 346.216 318.264 346.216ZM318.264 344.296C319.048 344.296 319.784 344.112 320.472 343.744C321.16 343.376 321.712 342.824 322.128 342.088C322.56 341.352 322.776 340.456 322.776 339.4C322.776 338.344 322.568 337.448 322.152 336.712C321.736 335.976 321.192 335.432 320.52 335.08C319.848 334.712 319.12 334.528 318.336 334.528C317.536 334.528 316.8 334.712 316.128 335.08C315.472 335.432 314.944 335.976 314.544 336.712C314.144 337.448 313.944 338.344 313.944 339.4C313.944 340.472 314.136 341.376 314.52 342.112C314.92 342.848 315.448 343.4 316.104 343.768C316.76 344.12 317.48 344.296 318.264 344.296ZM343.695 332.608C344.719 332.608 345.631 332.824 346.431 333.256C347.231 333.672 347.863 334.304 348.327 335.152C348.791 336 349.023 337.032 349.023 338.248V346H346.863V338.56C346.863 337.248 346.535 336.248 345.879 335.56C345.239 334.856 344.367 334.504 343.263 334.504C342.127 334.504 341.223 334.872 340.551 335.608C339.879 336.328 339.543 337.376 339.543 338.752V346H337.383V338.56C337.383 337.248 337.055 336.248 336.399 335.56C335.759 334.856 334.887 334.504 333.783 334.504C332.647 334.504 331.743 334.872 331.071 335.608C330.399 336.328 330.063 337.376 330.063 338.752V346H327.879V332.848H330.063V334.744C330.495 334.056 331.071 333.528 331.791 333.16C332.527 332.792 333.335 332.608 334.215 332.608C335.319 332.608 336.295 332.856 337.143 333.352C337.991 333.848 338.623 334.576 339.039 335.536C339.407 334.608 340.015 333.888 340.863 333.376C341.711 332.864 342.655 332.608 343.695 332.608Z" fill="#E5E4E0" fill-opacity="0.8"/>
<path d="M45.376 291.064V298.52H53.504V300.92H45.376V308.6H54.464V311H42.464V288.664H54.464V291.064H45.376ZM81.4943 288.856V311H78.5823V294.488L71.2223 311H69.1743L61.7823 294.456V311H58.8703V288.856H62.0063L70.1983 307.16L78.3903 288.856H81.4943ZM99.6168 306.04H89.8888L88.0968 311H85.0247L93.0888 288.824H96.4488L104.481 311H101.409L99.6168 306.04ZM98.7848 303.672L94.7528 292.408L90.7208 303.672H98.7848ZM110.907 288.696V311H107.995V288.696H110.907ZM118.782 308.632H126.59V311H115.87V288.696H118.782V308.632Z" fill="#E5E4E0"/>
<path d="M956.25 -16.5C956.25 -44.6416 932.963 -67.6666 904.5 -67.6666H490.5C462.037 -67.6666 438.75 -44.6416 438.75 -16.5M956.25 -16.5V290.5C956.25 318.642 932.963 341.667 904.5 341.667H490.5C462.037 341.667 438.75 318.642 438.75 290.5V-16.5M956.25 -16.5L697.5 162.583L438.75 -16.5" stroke="url(#paint1_linear_7248_1026)" stroke-width="4" stroke-linecap="round" stroke-linejoin="round"/>
</g>
<defs>
<linearGradient id="paint0_linear_7248_1026" x1="-6.02007e-06" y1="190" x2="808" y2="190" gradientUnits="userSpaceOnUse">
<stop stop-color="#5638B1"/>
<stop offset="1"/>
</linearGradient>
<linearGradient id="paint1_linear_7248_1026" x1="697.5" y1="-67.6666" x2="697.5" y2="341.667" gradientUnits="userSpaceOnUse">
<stop stop-color="#5638B1"/>
<stop offset="1" stop-color="#1E1E1E"/>
</linearGradient>
<clipPath id="clip0_7248_1026">
<path d="M0 32C0 14.3269 14.3269 0 32 0H776C793.673 0 808 14.3269 808 32V348C808 365.673 793.673 380 776 380H32C14.3269 380 0 365.673 0 348V32Z" fill="white"/>
</clipPath>
</defs>
</svg>
