<svg width="1225" height="380" viewBox="0 0 1225 380" fill="none" xmlns="http://www.w3.org/2000/svg">
<g clip-path="url(#clip0_7248_1081)">
<path d="M0 32C0 14.3269 14.3269 0 32 0H1193C1210.67 0 1225 14.3269 1225 32V348C1225 365.673 1210.67 380 1193 380H32C14.3269 380 0 365.673 0 348V32Z" fill="url(#paint0_linear_7248_1081)"/>
<path d="M45.376 344.632H53.184V347H42.464V324.696H45.376V344.632ZM59.1885 324.696V347H56.2765V324.696H59.1885ZM81.6875 347H78.7755L67.0635 329.24V347H64.1515V324.664H67.0635L78.7755 342.392V324.664H81.6875V347ZM98.7475 347L89.5635 336.824V347H86.6515V324.696H89.5635V335.032L98.7795 324.696H102.46L92.3475 335.864L102.556 347H98.7475ZM108.72 327.064V334.52H116.848V336.92H108.72V344.6H117.808V347H105.808V324.664H117.808V327.064H108.72ZM129.158 324.696C131.59 324.696 133.691 325.155 135.462 326.072C137.254 326.968 138.619 328.259 139.558 329.944C140.518 331.629 140.998 333.613 140.998 335.896C140.998 338.179 140.518 340.163 139.558 341.848C138.619 343.512 137.254 344.792 135.462 345.688C133.691 346.563 131.59 347 129.158 347H122.214V324.696H129.158ZM129.158 344.6C132.038 344.6 134.235 343.843 135.75 342.328C137.265 340.792 138.022 338.648 138.022 335.896C138.022 333.123 137.254 330.957 135.718 329.4C134.203 327.843 132.017 327.064 129.158 327.064H125.126V344.6H129.158ZM147.751 324.696V347H144.839V324.696H147.751ZM170.25 347H167.338L155.626 329.24V347H152.714V324.664H155.626L167.338 342.392V324.664H170.25V347Z" fill="#E5E4E0"/>
<path d="M1146.67 69.3333C1174.58 69.3333 1201.35 80.4221 1221.09 100.16C1240.83 119.899 1251.92 146.669 1251.92 174.583V297.375H1181.75V174.583C1181.75 165.279 1178.05 156.355 1171.47 149.776C1164.9 143.196 1155.97 139.5 1146.67 139.5C1137.36 139.5 1128.44 143.196 1121.86 149.776C1115.28 156.355 1111.58 165.279 1111.58 174.583V297.375H1041.42V174.583C1041.42 146.669 1052.51 119.899 1072.24 100.16C1091.98 80.4221 1118.75 69.3333 1146.67 69.3333Z" stroke="url(#paint1_linear_7248_1081)" stroke-width="4" stroke-linecap="round" stroke-linejoin="round"/>
<path d="M971.25 86.875H901.083V297.375H971.25V86.875Z" stroke="url(#paint2_linear_7248_1081)" stroke-width="4" stroke-linecap="round" stroke-linejoin="round"/>
<path d="M936.167 34.25C955.543 34.25 971.25 18.5426 971.25 -0.833355C971.25 -20.2093 955.543 -35.9167 936.167 -35.9167C916.791 -35.9167 901.083 -20.2093 901.083 -0.833355C901.083 18.5426 916.791 34.25 936.167 34.25Z" stroke="url(#paint3_linear_7248_1081)" stroke-width="4" stroke-linecap="round" stroke-linejoin="round"/>
</g>
<defs>
<linearGradient id="paint0_linear_7248_1081" x1="0" y1="190" x2="1225" y2="190" gradientUnits="userSpaceOnUse">
<stop stop-color="#5638B1"/>
<stop offset="1"/>
</linearGradient>
<linearGradient id="paint1_linear_7248_1081" x1="1076.5" y1="-35.9167" x2="1076.5" y2="297.375" gradientUnits="userSpaceOnUse">
<stop offset="0.394231" stop-color="#5638B1"/>
<stop offset="1"/>
</linearGradient>
<linearGradient id="paint2_linear_7248_1081" x1="1076.5" y1="-35.9167" x2="1076.5" y2="297.375" gradientUnits="userSpaceOnUse">
<stop offset="0.394231" stop-color="#5638B1"/>
<stop offset="1"/>
</linearGradient>
<linearGradient id="paint3_linear_7248_1081" x1="1076.5" y1="-35.9167" x2="1076.5" y2="297.375" gradientUnits="userSpaceOnUse">
<stop offset="0.394231" stop-color="#5638B1"/>
<stop offset="1"/>
</linearGradient>
<clipPath id="clip0_7248_1081">
<path d="M0 32C0 14.3269 14.3269 0 32 0H1193C1210.67 0 1225 14.3269 1225 32V348C1225 365.673 1210.67 380 1193 380H32C14.3269 380 0 365.673 0 348V32Z" fill="white"/>
</clipPath>
</defs>
</svg>
